HIERARCHY
ROOT Hips
{
	OFFSET -0.179506 -22.333345 2.821913
	CHANNELS 6 Xposition Yposition Zposition Zrotation Yrotation Xrotation 
	JOINT LeftUpLeg
	{
		OFFSET 6.951974 -9.140623 -0.681533
		CHANNELS 3 Zrotation Yrotation Xrotation
		JOINT LeftLeg
		{
			OFFSET 3.427654 -37.519855 -0.449580
			CHANNELS 3 Zrotation Yrotation Xrotation
			JOINT LeftFoot
			{
				OFFSET -1.359570 -39.796059 -4.369333
				CHANNELS 3 Zrotation Yrotation Xrotation
				JOINT LeftToe
				{
					OFFSET 2.635814 -5.579078 11.928840
					CHANNELS 3 Zrotation Yrotation Xrotation
					End Site
					{
						OFFSET 0.000000 0.000000 0.000000
					}
				}
			}
		}
	}
	JOINT RightUpLeg
	{
		OFFSET -6.767048 -9.052170 -0.431982
		CHANNELS 3 Zrotation Yrotation Xrotation
		JOINT RightLeg
		{
			OFFSET -3.829005 -38.256897 -0.885003
			CHANNELS 3 Zrotation Yrotation Xrotation
			JOINT RightFoot
			{
				OFFSET 1.577377 -39.841461 -4.231180
				CHANNELS 3 Zrotation Yrotation Xrotation
				JOINT RightToe
				{
					OFFSET -2.537174 -4.814398 12.334795
					CHANNELS 3 Zrotation Yrotation Xrotation
					End Site
					{
						OFFSET 0.000000 0.000000 0.000000
					}
				}
			}
		}
	}
	JOINT Spine
	{
		OFFSET -0.253288 10.896323 -2.669631
		CHANNELS 3 Zrotation Yrotation Xrotation
		JOINT Spine1
		{
			OFFSET 0.548704 13.518043 0.109247
			CHANNELS 3 Zrotation Yrotation Xrotation
			JOINT Spine2
			{
				OFFSET 0.145701 5.292222 2.542457
				CHANNELS 3 Zrotation Yrotation Xrotation
				JOINT Neck
				{
					OFFSET -0.277840 21.387037 -4.285703
					CHANNELS 3 Zrotation Yrotation Xrotation
					JOINT Head
					{
						OFFSET 0.515184 6.496960 5.134897
						CHANNELS 3 Zrotation Yrotation Xrotation
						End Site
						{
							OFFSET 0.000000 0.000000 0.000000
						}
					}
				}
				JOINT LeftShoulder
				{
					OFFSET 7.884473 12.174932 -3.408961
					CHANNELS 3 Zrotation Yrotation Xrotation
					JOINT LeftArm
					{
						OFFSET 9.097692 3.046888 -0.886815
						CHANNELS 3 Zrotation Yrotation Xrotation
						JOINT LeftForeArm
						{
							OFFSET 25.961220 -1.277207 -2.745643
							CHANNELS 3 Zrotation Yrotation Xrotation
							JOINT LeftHand
							{
								OFFSET 24.923361 0.898606 -0.117091
								CHANNELS 3 Zrotation Yrotation Xrotation
								End Site
								{
									OFFSET 0.000000 0.000000 0.000000
								}
							}
						}
					}
				}
				JOINT RightShoulder
				{
					OFFSET -8.175920 11.883285 -3.861528
					CHANNELS 3 Zrotation Yrotation Xrotation
					JOINT RightArm
					{
						OFFSET -9.601238 3.255117 -0.914307
						CHANNELS 3 Zrotation Yrotation Xrotation
						JOINT RightForeArm
						{
							OFFSET -25.374195 -1.332924 -2.140099
							CHANNELS 3 Zrotation Yrotation Xrotation
							JOINT RightHand
							{
								OFFSET -25.529810 0.777228 -0.555919
								CHANNELS 3 Zrotation Yrotation Xrotation
								End Site
								{
									OFFSET 0.000000 0.000000 0.000000
								}
							}
						}
					}
				}
			}
		}
	}
}
MOTION
Frames: 17
Frame Time: 0.033333
1.708954 -0.940749 99.494003 176.922755 -0.993211 84.544677 4.715119 2.035582 9.536626 -3.453016 -4.741545 -3.599777 1.958540 7.833187 -6.353547 nan nan nan -4.285359 -3.092348 10.463226 3.871755 -1.164634 -3.625357 5.317014 -3.994800 -2.730314 nan nan nan -0.760843 1.667787 5.275569 0.661071 -2.410953 4.570117 1.388116 -0.832361 0.666061 -3.030711 0.859755 1.800123 1.010534 -1.896798 -0.531683 -26.991709 -0.330368 6.412241 -59.123589 -6.965251 9.623544 7.592542 -21.824202 3.705010 -2.564021 -11.471980 -6.528817 26.685029 5.283600 7.070693 57.793429 4.152135 10.601248 -10.451162 12.372753 -8.846357 3.775929 8.063769 -13.066340 
1.664286 -0.921772 99.468452 176.967584 -1.077199 84.533790 4.560524 1.812236 9.556152 -3.426224 -4.674829 -3.598763 1.832303 7.933742 -6.321660 nan nan nan -4.446015 -2.841822 10.590044 4.005358 -1.300568 -3.805504 5.562403 -3.980828 -2.730516 nan nan nan -0.696003 1.602956 5.343640 0.413823 -2.316156 4.216064 1.532996 -0.980299 1.006061 -3.135204 0.989404 1.809911 1.176486 -1.883982 -0.459900 -26.653181 -0.185904 6.653104 -59.631998 -7.388439 8.801363 8.032876 -21.460932 2.639299 -3.312139 -13.442573 -8.810897 26.387606 5.436049 7.284282 58.130442 4.349529 10.563858 -10.529703 12.209046 -8.902993 3.626973 8.771843 -14.046341 
1.682465 -1.007651 99.446938 177.395744 -1.078097 84.584995 4.588214 1.632315 9.157502 -3.483718 -4.793153 -3.227435 1.959536 7.824445 -6.351636 nan nan nan -4.404642 -2.862367 10.592708 4.012754 -1.434486 -3.908729 5.542510 -4.146770 -2.688018 nan nan nan -0.848949 1.447858 5.610766 0.449075 -2.492158 3.886284 1.633746 -1.010720 1.066302 -3.200095 0.855297 1.837825 1.274371 -1.783852 -0.503005 -26.565809 -0.194454 6.672901 -59.699639 -7.459023 8.824094 7.941462 -21.482879 2.702717 -3.122289 -13.494363 -9.255056 26.212615 5.441766 7.196197 58.318333 4.315395 10.566670 -10.566347 12.278804 -9.135670 3.540840 8.954868 -14.727396 
1.714113 -0.968291 99.442154 177.384490 -1.036118 84.514343 4.673589 1.662874 9.269179 -3.490491 -4.810669 -3.266783 2.002054 7.800204 -6.340243 nan nan nan -4.325229 -2.898111 10.742873 3.952781 -1.380348 -3.989651 5.560813 -4.120713 -2.606298 nan nan nan -0.863195 1.416784 5.690471 0.456273 -2.473504 3.873325 1.641205 -0.943572 1.091982 -3.155122 0.842158 1.853126 1.275083 -1.733645 -0.555015 -26.661126 -0.079377 6.714564 -59.603094 -7.276445 8.735142 7.978143 -22.115983 2.609452 -3.023408 -13.266153 -9.297816 26.203937 5.433390 7.206395 58.358592 4.273172 10.507890 -10.634359 12.402593 -9.291380 3.586952 8.908582 -14.899298 
1.743192 -0.934587 99.442253 177.359012 -1.018068 84.465890 4.758534 1.716876 9.375402 -3.541668 -4.784492 -3.310586 1.963730 7.767958 -6.345097 nan nan nan -4.290582 -2.933643 10.839663 3.935435 -1.319630 -4.018194 5.580945 -4.083725 -2.583816 nan nan nan -0.880100 1.425791 5.718162 0.455702 -2.457049 3.876498 1.659964 -0.933878 1.127749 -3.077668 0.998147 1.934884 1.202196 -1.616956 -0.549922 -26.665402 -0.049361 6.764994 -59.574414 -7.207477 8.673736 7.933649 -22.429742 2.629834 -2.952820 -13.024650 -9.252300 26.205513 5.421875 7.235152 58.391148 4.333305 10.546946 -10.575731 12.436986 -9.078562 3.571884 8.656597 -14.635030 
1.742270 -0.874757 99.435478 177.235655 -1.157567 84.399383 4.532510 0.841321 9.813429 -3.739556 -4.558634 -3.777636 3.066400 8.255110 -6.366284 nan nan nan -4.520261 -2.088480 11.282254 4.219868 -1.269432 -4.611255 6.304023 -4.546721 -2.768103 nan nan nan -1.130799 1.445221 5.733019 0.376720 -2.437369 3.672021 1.799256 -0.807536 1.625801 -3.644041 2.323942 2.020389 1.967507 -1.216805 -0.637099 -26.477738 0.327472 6.769417 -59.837681 -7.575425 8.721065 9.046067 -21.289919 5.241552 -5.747841 -15.902196 -7.438990 26.180618 5.353443 6.949405 58.553514 4.348109 10.685753 -10.595412 12.320189 -8.094511 3.538190 9.475768 -14.925716 
1.751025 -0.863845 99.440681 177.245436 -1.130772 84.393264 4.558847 0.759382 9.851735 -3.741370 -4.565506 -3.803715 3.104469 8.272509 -6.372576 nan nan nan -4.489035 -2.098970 11.310682 4.238168 -1.265545 -4.619959 6.300861 -4.582102 -2.901247 nan nan nan -1.118641 1.439251 5.804329 0.380928 -2.427600 3.460774 1.846858 -0.852157 1.800428 -3.633667 2.468176 1.996100 1.928421 -1.196763 -0.666675 -26.381184 0.337309 6.775473 -60.045504 -7.546862 8.706030 9.150893 -21.302197 5.429272 -5.701120 -15.950431 -7.605341 26.096860 5.335066 6.952197 58.684172 4.390674 10.816566 -10.614428 12.381565 -7.601467 3.402218 9.151441 -14.687886 
1.754651 -0.851360 99.444473 177.241691 -1.107907 84.383371 4.595587 0.774044 9.895802 -3.749915 -4.600073 -3.845202 3.127522 8.250020 -6.340499 nan nan nan -4.467923 -2.126640 11.312658 4.251536 -1.270000 -4.583702 6.267545 -4.590390 -2.970575 nan nan nan -1.087900 1.454359 5.841889 0.378091 -2.401090 3.365725 1.864400 -0.881975 1.863283 -3.623145 2.502490 1.979283 1.915306 -1.199429 -0.615985 -26.339587 0.280152 6.821285 -60.178564 -7.533575 8.747789 9.265845 -21.301366 5.482240 -5.667872 -15.935133 -7.748629 26.043566 5.359166 6.983838 58.792001 4.344521 10.894765 -10.746833 12.455496 -7.478697 3.378398 9.068624 -14.777945 
1.770130 -0.835950 99.447517 177.227846 -1.097981 84.376517 4.638971 0.795147 9.930767 -3.776891 -4.599333 -3.874118 3.170146 8.210897 -6.330543 nan nan nan -4.447218 -2.131604 11.323914 4.231642 -1.242122 -4.572065 6.218410 -4.574985 -2.983964 nan nan nan -1.101919 1.464162 5.872568 0.398156 -2.385295 3.334896 1.882119 -0.886116 1.873852 -3.615218 2.509429 1.969420 1.920156 -1.192280 -0.601461 -26.326921 0.249149 6.871220 -60.252506 -7.523649 8.779675 9.355662 -21.353943 5.443185 -5.578288 -15.936520 -7.854302 26.013365 5.366072 6.980763 58.874715 4.285760 10.936133 -10.890669 12.546833 -7.509249 3.397005 9.086389 -14.921003 
1.782303 -0.818161 99.453453 177.241721 -1.099692 84.380113 4.646464 0.848050 9.902376 -3.768749 -4.617618 -3.817019 3.198686 8.176880 -6.387952 nan nan nan -4.410410 -2.138964 11.335537 4.142952 -1.195518 -4.584233 6.209278 -4.553344 -2.987794 nan nan nan -1.128173 1.429756 5.867497 0.428632 -2.412769 3.353904 1.860569 -0.851481 1.872516 -3.622377 2.390790 1.813739 1.929092 -1.327029 -0.598386 -26.331013 0.244228 6.839925 -60.247667 -7.463091 8.881911 9.350688 -21.424161 5.391248 -5.372145 -15.925132 -7.889589 26.029612 5.381354 6.916028 58.885519 4.241212 10.966385 -10.914973 12.534856 -7.628444 3.460222 9.119157 -15.052154 
1.794234 -0.803381 99.456467 177.250728 -1.104914 84.413029 4.614282 0.887607 9.825980 -3.736494 -4.648265 -3.744746 3.226226 8.202529 -6.413449 nan nan nan -4.367378 -2.134031 11.314894 4.033845 -1.085884 -4.610610 6.186889 -4.541262 -3.074003 nan nan nan -1.126749 1.396303 5.834976 0.445232 -2.441644 3.362788 1.821125 -0.810402 1.868875 -3.624706 2.087912 1.508459 1.845061 -1.559692 -0.565225 -26.377465 0.262361 6.783367 -60.157280 -7.403285 8.981470 9.248927 -21.488537 5.374165 -5.127154 -15.774521 -7.861088 26.069115 5.426364 6.884284 58.879749 4.181415 11.002352 -10.928261 12.529080 -7.767015 3.429164 9.104431 -15.109374 
1.802118 -0.783599 99.459854 177.287751 -1.074480 84.405190 4.642219 0.908178 9.829674 -3.734413 -4.627077 -3.734968 3.172963 8.193718 -6.421266 nan nan nan -4.321687 -2.136811 11.373737 4.001767 -1.060832 -4.698156 6.139404 -4.540993 -3.142735 nan nan nan -1.088847 1.329029 5.807893 0.466916 -2.480642 3.414309 1.788915 -0.780547 1.871791 -3.555970 1.863453 1.308680 1.715609 -1.653890 -0.477622 -26.423600 0.301665 6.732798 -60.112352 -7.418897 9.014421 9.195777 -21.481064 5.448127 -5.062322 -15.725124 -7.777859 26.092589 5.479145 6.910741 58.876024 4.227404 10.990525 -10.963339 12.451558 -7.814027 3.405915 9.063578 -15.076323 
1.804973 -0.785124 99.457275 177.280240 -1.046173 84.373406 4.669055 0.895190 9.869291 -3.725119 -4.600471 -3.741071 3.165623 8.190528 -6.423753 nan nan nan -4.291459 -2.102165 11.411202 4.007703 -1.067246 -4.703815 6.096369 -4.535570 -3.187594 nan nan nan -1.044974 1.309034 5.861730 0.476380 -2.479318 3.428981 1.782476 -0.781567 1.873115 -3.539888 1.835497 1.255493 1.667532 -1.625715 -0.450714 -26.418454 0.264464 6.755873 -60.174317 -7.474286 8.974646 9.240882 -21.438390 5.503335 -5.350487 -15.803359 -7.787316 26.081885 5.497847 6.938212 58.892194 4.262339 10.946225 -11.050654 12.498858 -7.821648 3.423137 9.035934 -15.081717 
1.798758 -0.778535 99.450111 177.245044 -1.053295 84.300205 4.649952 0.887938 9.952858 -3.697028 -4.654516 -3.721352 3.173927 8.225103 -6.450616 nan nan nan -4.325115 -2.084906 11.482273 4.058777 -1.112890 -4.672651 6.060363 -4.562803 -3.165550 nan nan nan -1.026128 1.315601 6.011926 0.459166 -2.457514 3.366017 1.796756 -0.794269 1.879239 -3.610073 1.891458 1.259904 1.676580 -1.565919 -0.447186 -26.402084 0.195990 6.829586 -60.229487 -7.480215 8.932519 9.282695 -21.467619 5.566000 -5.427624 -15.846426 -7.915972 26.047841 5.529338 6.968736 58.899433 4.255059 10.921655 -11.070981 12.575437 -7.837080 3.316705 9.008084 -15.258234 
1.789382 -0.748767 99.441566 177.214763 -1.091553 84.200083 4.619515 0.938199 10.080438 -3.695613 -4.673944 -3.715647 3.169340 8.232762 -6.474405 nan nan nan -4.441842 -2.121494 11.605952 4.192375 -1.158791 -4.651084 6.094379 -4.555357 -3.057323 nan nan nan -1.043549 1.318534 6.188229 0.425151 -2.446030 3.267060 1.821234 -0.791966 1.889943 -3.655889 1.866386 1.286431 1.679506 -1.531536 -0.369671 -26.406278 0.184902 6.903469 -60.216967 -7.471977 8.918867 9.224523 -21.539120 5.823713 -5.255882 -15.803963 -8.009541 25.999649 5.532059 7.009398 58.903787 4.280036 10.912504 -10.983217 12.601136 -7.807099 3.099720 8.997973 -15.450228 
1.786213 -0.725783 99.429497 177.210431 -1.140825 84.130003 4.589650 0.978718 10.165225 -3.708054 -4.685450 -3.722449 3.168406 8.192767 -6.480586 nan nan nan -4.561456 -2.149250 11.710732 4.317928 -1.182236 -4.655741 6.097950 -4.536027 -2.999855 nan nan nan -1.062651 1.312530 6.312164 0.377305 -2.432504 3.187657 1.836084 -0.818872 1.921393 -3.671114 1.799981 1.294504 1.663551 -1.543881 -0.331062 -26.418413 0.217788 6.940128 -60.202282 -7.521635 8.869864 9.209321 -21.541038 6.014609 -5.257885 -15.824466 -8.098758 25.938786 5.528649 7.045537 58.958037 4.330440 10.920246 -10.932608 12.620836 -7.724512 3.019851 8.972414 -15.569795 
1.795554 -0.700780 99.419502 177.242798 -1.171431 84.143462 4.562504 0.979798 10.139999 -3.699759 -4.692291 -3.688728 3.159940 8.160746 -6.497079 nan nan nan -4.613482 -2.184861 11.730741 4.354055 -1.171126 -4.664039 6.058462 -4.546948 -2.989978 nan nan nan -1.098020 1.286906 6.255028 0.355758 -2.450814 3.229212 1.831597 -0.831044 1.932756 -3.624653 1.846640 1.353919 1.665591 -1.474695 -0.344519 -26.420019 0.229199 6.960501 -60.196265 -7.564058 8.847652 9.267593 -21.516074 5.986184 -5.339201 -15.937054 -8.122520 25.948209 5.540560 7.059234 58.986268 4.366515 10.927708 -10.948927 12.608396 -7.721293 3.046741 8.985526 -15.571068 
